<svg width="196" height="198" viewBox="0 0 196 198" fill="none" xmlns="http://www.w3.org/2000/svg">
<path d="M80.6684 6.37883C80.1937 3.68655 81.9907 1.10619 84.7034 0.766607C102.431 -1.45265 120.463 1.164 136.872 8.38417C154.794 16.2701 169.975 29.2934 180.496 45.8073C191.016 62.3212 196.404 81.584 195.976 101.16C195.549 120.735 189.327 139.745 178.096 155.784C166.865 171.823 151.13 184.172 132.881 191.269C114.632 198.365 94.6887 199.891 75.5725 195.653C56.4563 191.415 39.026 181.604 25.486 167.46C13.089 154.51 4.46285 138.46 0.485109 121.043C-0.123559 118.378 1.68655 115.806 4.37883 115.332V115.332C7.07111 114.857 9.62464 116.659 10.2481 119.321C13.8762 134.81 21.5946 149.078 32.6374 160.614C44.8234 173.344 60.5106 182.174 77.7152 185.988C94.9198 189.802 112.869 188.429 129.293 182.042C145.717 175.655 159.879 164.541 169.986 150.106C180.094 135.67 185.694 118.562 186.079 100.944C186.463 83.3256 181.615 65.9891 172.146 51.1266C162.678 36.2641 149.015 24.5431 132.885 17.4458C118.268 11.0143 102.221 8.64137 86.4242 10.5298C83.7097 10.8544 81.1431 9.07111 80.6684 6.37883V6.37883Z" fill="#464A4E"/>
</svg>
