<svg width="20" height="20" viewBox="0 0 20 20" fill="none" xmlns="http://www.w3.org/2000/svg">
<path d="M13.589 6.4397C15.0199 6.4397 16.3921 7.00862 17.4039 8.02132C18.4157 9.03402 18.9841 10.4075 18.9841 11.8397V18.1397H15.3874V11.8397C15.3874 11.3623 15.1979 10.9045 14.8606 10.5669C14.5234 10.2293 14.0659 10.0397 13.589 10.0397C13.112 10.0397 12.6546 10.2293 12.3173 10.5669C11.9801 10.9045 11.7906 11.3623 11.7906 11.8397V18.1397H8.19385V11.8397C8.19385 10.4075 8.76226 9.03402 9.77405 8.02132C10.7858 7.00862 12.1581 6.4397 13.589 6.4397V6.4397Z" stroke="#464A4E" stroke-width="2" stroke-linecap="round" stroke-linejoin="round"/>
<path d="M4.59676 7.33971H1V18.1397H4.59676V7.33971Z" stroke="#464A4E" stroke-width="2" stroke-linecap="round" stroke-linejoin="round"/>
<path d="M2.79838 4.6397C3.7916 4.6397 4.59676 3.83382 4.59676 2.8397C4.59676 1.84559 3.7916 1.0397 2.79838 1.0397C1.80516 1.0397 1 1.84559 1 2.8397C1 3.83382 1.80516 4.6397 2.79838 4.6397Z" stroke="#464A4E" stroke-width="2" stroke-linecap="round" stroke-linejoin="round"/>
</svg>
