<svg width="18" height="22" viewBox="0 0 18 22" fill="none" xmlns="http://www.w3.org/2000/svg">
<path d="M16.9856 9C16.9856 15.2222 8.9928 20.5556 8.9928 20.5556C8.9928 20.5556 1 15.2222 1 9C1 6.87827 1.8421 4.84344 3.34104 3.34315C4.83998 1.84285 6.87298 1 8.9928 1C11.1126 1 13.1456 1.84285 14.6446 3.34315C16.1435 4.84344 16.9856 6.87827 16.9856 9Z" stroke="#464A4E" stroke-width="2" stroke-linecap="round" stroke-linejoin="round"/>
<path d="M8.99288 11.6667C10.4643 11.6667 11.6571 10.4728 11.6571 9.00001C11.6571 7.52725 10.4643 6.33334 8.99288 6.33334C7.52145 6.33334 6.32861 7.52725 6.32861 9.00001C6.32861 10.4728 7.52145 11.6667 8.99288 11.6667Z" stroke="#464A4E" stroke-width="2" stroke-linecap="round" stroke-linejoin="round"/>
</svg>
