<svg width="20" height="21" viewBox="0 0 20 21" fill="none" xmlns="http://www.w3.org/2000/svg">
<path d="M18.9832 14.5032V17.2183C18.9843 17.4704 18.9327 17.7199 18.8318 17.9508C18.7309 18.1817 18.5829 18.3891 18.3974 18.5595C18.2118 18.7299 17.9927 18.8596 17.7542 18.9403C17.5156 19.0211 17.2628 19.0511 17.012 19.0284C14.2296 18.7258 11.5569 17.7741 9.20862 16.2499C7.02387 14.8604 5.17158 13.0064 3.7833 10.8197C2.25514 8.45867 1.30414 5.77052 1.00734 2.97306C0.984743 2.72279 1.01446 2.47055 1.0946 2.23241C1.17473 1.99426 1.30354 1.77542 1.4728 1.58983C1.64207 1.40423 1.84809 1.25595 2.07775 1.15442C2.30741 1.05288 2.55567 1.00032 2.80674 1.00009H5.5194C5.95822 0.995765 6.38365 1.1513 6.71637 1.4377C7.0491 1.7241 7.26642 2.12183 7.32784 2.55675C7.44234 3.42564 7.65467 4.27878 7.9608 5.0999C8.08245 5.42383 8.10878 5.77588 8.03666 6.11433C7.96455 6.45278 7.79701 6.76345 7.5539 7.00952L6.40554 8.15891C7.69274 10.4247 9.5671 12.3008 11.8309 13.5891L12.9792 12.4397C13.2251 12.1964 13.5355 12.0287 13.8736 11.9565C14.2117 11.8843 14.5635 11.9107 14.8871 12.0325C15.7075 12.3389 16.5599 12.5514 17.428 12.666C17.8672 12.728 18.2684 12.9495 18.5551 13.2882C18.8419 13.6269 18.9942 14.0594 18.9832 14.5032Z" stroke="#464A4E" stroke-width="2" stroke-linecap="round" stroke-linejoin="round"/>
</svg>
